# xmcd CD database file
#
# Track frame offsets:
#	150
#	14623
#	27274
#	41307
#	54832
#	69827
#	83357
#	96896
#	110653
#	123310
#	135362
#	147564
#	159727
#	171916
#	189919
#	202824
#	214978
#	228821
#	241260
#	254669
#	268063
#	282434
#
# Disc length: 3935 seconds
#
# Revision: 3
# Processed by: cddbd v1.5.2PL0 Copyright (c) Steve Scherf et al.
# Submitted via: CDex 1.81
#
DISCID=300f5d16
DTITLE=Various Artist - JazzPiano History - [CD 04)- Blues and Boogie
DYEAR=1900
DGENRE=Jazz
TTITLE0=Will Ezell - Barrel House Man
TTITLE1=Will Ezell - West Coast Rag
TTITLE2=Will Ezell - Barrel House Woman
TTITLE3=Jimmy Yancey - Jimmy's Stuff
TTITLE4=Jimmy Yancey - Jimmy Yancey
TTITLE5=Jimmy Yancey - Two O'Clock Blues
TTITLE6=Jimmy Yancey - Janie's Joys
TTITLE7=Jimmy Yancey - Yancey Limited
TTITLE8=Jimmy Yancey - Yankey Stomp
TTITLE9=Jimmy Yancey - State Street Special
TTITLE10=Jimmy Yancey - Five O'Clock Blues
TTITLE11=Jimmy Yancey - The Mellow Blues
TTITLE12=Jimmy Yancey - 35th and Dearborn
TTITLE13=Jimmy Yancey - How Long Blues
TTITLE14=Jimmy Yancey - Salute To Pinetop
TTITLE15=Jimmy Yancey - Yancey Special
TTITLE16=Pete Johnson - Let 'Em Jump
TTITLE17=Pete Johnson - Boogie Woogie
TTITLE18=Pete Johnson - Basement Boogie
TTITLE19=Pete Johnson - Dive Bomber
TTITLE20=Pete Johnson - Zero Hour
TTITLE21=Pete Johnson - Swingin' The Boogie
EXTD=
EXTT0=
EXTT1=
EXTT2=
EXTT3=
EXTT4=
EXTT5=
EXTT6=
EXTT7=
EXTT8=
EXTT9=
EXTT10=
EXTT11=
EXTT12=
EXTT13=
EXTT14=
EXTT15=
EXTT16=
EXTT17=
EXTT18=
EXTT19=
EXTT20=
EXTT21=
PLAYORDER=
